HIERARCHY
ROOT Hips
{
	OFFSET -0.001795 -0.223333 0.028219
	CHANNELS 6 Xposition Yposition Zposition Zrotation Yrotation Xrotation 
	JOINT LeftUpLeg
	{
		OFFSET 0.069520 -0.091406 -0.006815
		CHANNELS 3 Zrotation Yrotation Xrotation
		JOINT LeftLeg
		{
			OFFSET 0.034277 -0.375199 -0.004496
			CHANNELS 3 Zrotation Yrotation Xrotation
			JOINT LeftFoot
			{
				OFFSET -0.013596 -0.397961 -0.043693
				CHANNELS 3 Zrotation Yrotation Xrotation
				JOINT LeftToe
				{
					OFFSET 0.026358 -0.055791 0.119288
					CHANNELS 3 Zrotation Yrotation Xrotation
					End Site
					{
						OFFSET 0.000000 0.000000 0.000000
					}
				}
			}
		}
	}
	JOINT RightUpLeg
	{
		OFFSET -0.067670 -0.090522 -0.004320
		CHANNELS 3 Zrotation Yrotation Xrotation
		JOINT RightLeg
		{
			OFFSET -0.038290 -0.382569 -0.008850
			CHANNELS 3 Zrotation Yrotation Xrotation
			JOINT RightFoot
			{
				OFFSET 0.015774 -0.398415 -0.042312
				CHANNELS 3 Zrotation Yrotation Xrotation
				JOINT RightToe
				{
					OFFSET -0.025372 -0.048144 0.123348
					CHANNELS 3 Zrotation Yrotation Xrotation
					End Site
					{
						OFFSET 0.000000 0.000000 0.000000
					}
				}
			}
		}
	}
	JOINT Spine
	{
		OFFSET -0.002533 0.108963 -0.026696
		CHANNELS 3 Zrotation Yrotation Xrotation
		JOINT Spine1
		{
			OFFSET 0.005487 0.135180 0.001092
			CHANNELS 3 Zrotation Yrotation Xrotation
			JOINT Spine2
			{
				OFFSET 0.001457 0.052922 0.025425
				CHANNELS 3 Zrotation Yrotation Xrotation
				JOINT Neck
				{
					OFFSET -0.002778 0.213870 -0.042857
					CHANNELS 3 Zrotation Yrotation Xrotation
					JOINT Head
					{
						OFFSET 0.005152 0.064970 0.051349
						CHANNELS 3 Zrotation Yrotation Xrotation
						End Site
						{
							OFFSET 0.000000 0.000000 0.000000
						}
					}
				}
				JOINT LeftShoulder
				{
					OFFSET 0.078845 0.121749 -0.034090
					CHANNELS 3 Zrotation Yrotation Xrotation
					JOINT LeftArm
					{
						OFFSET 0.090977 0.030469 -0.008868
						CHANNELS 3 Zrotation Yrotation Xrotation
						JOINT LeftForeArm
						{
							OFFSET 0.259612 -0.012772 -0.027456
							CHANNELS 3 Zrotation Yrotation Xrotation
							JOINT LeftHand
							{
								OFFSET 0.249234 0.008986 -0.001171
								CHANNELS 3 Zrotation Yrotation Xrotation
								End Site
								{
									OFFSET 0.000000 0.000000 0.000000
								}
							}
						}
					}
				}
				JOINT RightShoulder
				{
					OFFSET -0.081759 0.118833 -0.038615
					CHANNELS 3 Zrotation Yrotation Xrotation
					JOINT RightArm
					{
						OFFSET -0.096012 0.032551 -0.009143
						CHANNELS 3 Zrotation Yrotation Xrotation
						JOINT RightForeArm
						{
							OFFSET -0.253742 -0.013329 -0.021401
							CHANNELS 3 Zrotation Yrotation Xrotation
							JOINT RightHand
							{
								OFFSET -0.255298 0.007772 -0.005559
								CHANNELS 3 Zrotation Yrotation Xrotation
								End Site
								{
									OFFSET 0.000000 0.000000 0.000000
								}
							}
						}
					}
				}
			}
		}
	}
}
MOTION
Frames: 15
Frame Time: 0.050000
0.000000 0.941305 0.000000 -0.392401 -0.239592 3.399273 0.681210 -0.048974 -0.406367 -0.026701 0.024873 -0.650796 -1.388924 -1.988394 1.928842 0.000000 0.000000 0.000000 -0.435756 0.244946 -2.397366 -1.324591 0.252617 2.228235 2.075781 4.464805 1.388161 0.000000 0.000000 0.000000 2.189943 -0.014470 -0.507367 -1.331323 0.660317 -2.252724 -1.776559 1.675620 6.208734 4.194589 -1.362823 -14.929555 0.000000 0.000000 0.000000 -23.118374 1.990731 -3.951589 -45.711185 -3.680698 -4.009721 -13.989001 -20.538103 3.226126 0.000000 0.000000 0.000000 23.133836 -5.098959 -4.608333 52.485632 4.506204 -3.400922 11.817788 21.895531 2.911822 0.000000 0.000000 0.000000 
0.000316 0.940323 0.000570 -0.391587 -0.509978 3.940945 0.951901 -0.048499 -0.329970 -0.437775 0.096958 -1.638370 -1.612031 -2.270452 2.304814 0.000000 0.000000 0.000000 -0.961484 0.317128 -3.101707 -0.848098 0.191590 2.194269 2.508467 5.720669 1.132502 0.000000 0.000000 0.000000 2.440705 0.030233 -1.367708 -1.643973 0.793660 -1.692602 -1.961045 1.275656 5.750276 3.603084 -0.958390 -15.610753 0.000000 0.000000 0.000000 -23.317824 3.029570 -4.447394 -45.587145 -3.196824 -4.168790 -14.179241 -20.702168 3.306823 0.000000 0.000000 0.000000 22.340501 -5.651938 -4.984532 53.467488 3.357736 -3.850669 12.920676 22.842115 3.231392 0.000000 0.000000 0.000000 
0.000490 0.939613 0.000948 -0.155361 -0.383348 4.054423 0.661647 -0.080613 -0.766532 -0.130368 0.029199 -0.458504 -1.739832 -3.470771 0.512822 0.000000 0.000000 0.000000 -0.867715 0.349773 -3.461329 -1.126585 0.256656 2.810714 1.901917 4.830562 0.132307 0.000000 0.000000 0.000000 2.449931 0.032795 -1.425141 -1.537905 0.759320 -3.106524 -2.180961 0.537851 6.862510 3.055674 -0.856937 -14.183212 0.000000 0.000000 0.000000 -22.742895 2.655985 -3.909211 -46.330055 -3.269739 -4.364433 -13.520718 -19.650241 3.055814 0.000000 0.000000 0.000000 23.044227 -4.740041 -4.714012 52.871543 3.174529 -3.966202 11.117689 22.886787 2.876859 0.000000 0.000000 0.000000 
0.000416 0.939011 0.001456 -0.087184 -0.268320 4.145191 0.624095 -0.065149 -0.590665 -0.235254 0.048475 -0.720332 -2.106637 -4.176870 0.655251 0.000000 0.000000 0.000000 -1.217443 0.369283 -3.658071 -0.718998 0.218810 3.124592 1.968994 5.263300 -0.251958 0.000000 0.000000 0.000000 2.254594 0.029381 -1.351887 -1.600642 0.784730 -2.782305 -1.780963 -0.349005 6.203322 2.744601 -0.745305 -14.106190 0.000000 0.000000 0.000000 -23.168382 4.236668 -4.652650 -46.333146 -3.193235 -4.397603 -14.150259 -18.972040 3.083153 0.000000 0.000000 0.000000 22.554447 -5.165161 -5.166986 52.729949 2.972102 -3.913231 12.179516 22.141954 2.905685 0.000000 0.000000 0.000000 
0.000244 0.939177 0.001937 -0.107387 -0.430737 3.955918 0.449005 -0.049399 -0.448598 0.180992 -0.001563 -0.509831 -1.818836 -3.641990 0.510337 0.000000 0.000000 0.000000 -1.213940 0.349407 -3.442518 -0.571804 0.195201 3.026346 1.729366 4.783317 -0.478849 0.000000 0.000000 0.000000 2.339781 0.026381 -1.288930 -1.450495 0.715417 -2.607761 -1.936887 -0.401306 6.149432 2.495197 -0.646211 -13.586307 0.000000 0.000000 0.000000 -23.205537 4.108554 -4.554525 -46.475356 -3.134274 -4.436670 -14.094796 -18.517772 2.999898 0.000000 0.000000 0.000000 21.945289 -5.056252 -5.033608 53.113691 2.767543 -4.020735 12.031840 22.111408 2.867919 0.000000 0.000000 0.000000 
0.000059 0.939533 0.002503 0.009761 -0.246350 3.962054 0.469284 -0.018124 -0.085698 0.042197 0.024005 -0.831714 -1.904582 -3.808806 0.536533 0.000000 0.000000 0.000000 -1.442007 0.330352 -3.214509 -0.367748 0.160660 2.847854 1.758839 4.759998 -0.327359 0.000000 0.000000 0.000000 2.192384 0.032033 -1.359953 -1.339616 0.667334 -2.620558 -1.904786 -0.779757 6.194878 2.234551 -0.519381 -13.467687 0.000000 0.000000 0.000000 -23.565212 4.673470 -4.855287 -46.519787 -3.066353 -4.490929 -14.071111 -18.583768 3.019869 0.000000 0.000000 0.000000 21.607986 -5.176841 -5.124965 52.939501 2.486034 -4.114707 12.496263 22.037815 2.923498 0.000000 0.000000 0.000000 
-0.000035 0.940059 0.002993 0.050686 -0.391444 3.852133 0.355681 -0.002154 0.065745 0.028480 0.026616 -0.869048 -1.961652 -3.725456 0.913978 0.000000 0.000000 0.000000 -1.402448 0.312141 -3.013857 -0.318658 0.146216 2.654069 1.839559 4.988853 -0.353420 0.000000 0.000000 0.000000 2.361372 0.022592 -1.218390 -1.425727 0.704582 -2.586561 -2.103991 -0.668183 6.211781 2.445170 -0.638328 -13.564024 0.000000 0.000000 0.000000 -23.827539 4.878831 -5.037913 -46.602461 -2.675950 -4.639631 -14.041237 -18.825023 3.054177 0.000000 0.000000 0.000000 21.799745 -5.345106 -5.233596 52.793570 2.035402 -4.301711 12.572570 22.403882 2.996188 0.000000 0.000000 0.000000 
0.000023 0.940355 0.003444 0.107945 -0.358392 3.774128 0.341652 0.012262 0.224251 0.018304 0.027989 -0.878864 -1.919189 -3.821613 0.572039 0.000000 0.000000 0.000000 -1.524086 0.299969 -2.866179 -0.150166 0.127768 2.726753 1.797671 5.223153 -0.865911 0.000000 0.000000 0.000000 2.423947 0.020343 -1.184546 -1.388214 0.685525 -2.353575 -2.186552 -0.558121 5.983940 2.678846 -0.768631 -13.578404 0.000000 0.000000 0.000000 -23.942049 4.961190 -5.157553 -46.709883 -2.199547 -4.794906 -14.172731 -19.326396 3.154156 0.000000 0.000000 0.000000 21.787451 -5.541147 -5.307708 52.648421 1.812847 -4.371783 12.836900 22.638478 3.085195 0.000000 0.000000 0.000000 
0.000130 0.940455 0.003778 0.161312 -0.246264 3.786515 0.297095 0.018663 0.284871 -0.100244 0.037950 -0.817590 -1.860920 -3.660282 0.635912 0.000000 0.000000 0.000000 -1.564301 0.298290 -2.843522 -0.088974 0.114914 2.606402 1.683905 5.026558 -1.024584 0.000000 0.000000 0.000000 2.671499 0.027805 -1.349288 -1.465835 0.718320 -2.105717 -2.366124 -0.483410 5.817630 2.800144 -0.842356 -13.424063 0.000000 0.000000 0.000000 -23.922316 5.237759 -5.374637 -46.921968 -1.751043 -4.953331 -14.431634 -19.625347 3.242134 0.000000 0.000000 0.000000 21.853875 -5.917546 -5.491127 52.313011 1.659503 -4.400553 13.432796 22.885811 3.242044 0.000000 0.000000 0.000000 
0.000174 0.940580 0.004062 0.169214 -0.300539 3.913667 0.202470 0.020345 0.278702 -0.019043 0.034580 -0.961799 -1.657378 -3.387514 0.336878 0.000000 0.000000 0.000000 -1.589421 0.309867 -2.968172 -0.076223 0.114693 2.639168 1.601830 5.111037 -1.472054 0.000000 0.000000 0.000000 2.930489 0.041335 -1.611389 -1.670746 0.810128 -2.086061 -2.327509 -0.454370 6.073449 2.814110 -0.837696 -13.615526 0.000000 0.000000 0.000000 -24.172317 5.559048 -5.594205 -47.026450 -1.496528 -5.080332 -14.633453 -19.810975 3.314290 0.000000 0.000000 0.000000 21.678769 -6.065275 -5.542302 52.310151 1.872601 -4.332792 13.705737 23.007595 3.315766 0.000000 0.000000 0.000000 
0.000065 0.940768 0.004295 0.206084 -0.285816 4.060644 0.207344 0.028027 0.366662 0.066446 0.031024 -1.105901 -1.635670 -3.310173 0.393413 0.000000 0.000000 0.000000 -1.625039 0.327466 -3.162871 -0.145742 0.124066 2.653241 1.490445 4.774580 -1.419782 0.000000 0.000000 0.000000 3.142934 0.061845 -1.961459 -1.714477 0.826750 -1.736308 -2.454813 -0.407091 5.874780 2.826855 -0.853812 -13.422797 0.000000 0.000000 0.000000 -24.404736 5.631399 -5.709554 -46.968087 -0.940121 -5.253832 -14.797170 -19.919658 3.356453 0.000000 0.000000 0.000000 21.954137 -6.409342 -5.771196 52.101248 2.007277 -4.241758 14.302650 23.121716 3.449961 0.000000 0.000000 0.000000 
-0.000291 0.941034 0.004687 0.280788 -0.299494 4.073175 0.115096 0.048672 0.568379 0.061542 0.036900 -1.262304 -1.678679 -3.548783 0.125539 0.000000 0.000000 0.000000 -1.439083 0.322868 -3.124212 -0.316080 0.146706 2.675926 1.405100 4.708973 -1.664454 0.000000 0.000000 0.000000 3.196857 0.066420 -2.035573 -1.689109 0.812941 -1.475479 -2.482964 -0.220760 5.750591 3.062127 -0.992439 -13.344301 0.000000 0.000000 0.000000 -24.749775 5.754276 -5.905732 -46.686777 -0.721120 -5.275085 -15.027378 -19.947809 3.392396 0.000000 0.000000 0.000000 22.209621 -6.536144 -5.841764 52.020035 2.323248 -4.101056 14.420065 23.070088 3.473560 0.000000 0.000000 0.000000 
-0.000841 0.941280 0.005270 0.266534 -0.295498 4.097431 0.130931 0.075125 0.865806 0.089777 0.048440 -1.672950 -1.755783 -3.564273 0.400302 0.000000 0.000000 0.000000 -1.248399 0.301182 -2.895577 -0.518863 0.158534 2.361679 1.327472 4.357768 -1.454215 0.000000 0.000000 0.000000 3.363575 0.076899 -2.200617 -1.586849 0.762523 -1.100347 -2.658253 0.062587 5.525685 3.327084 -1.136413 -13.261382 0.000000 0.000000 0.000000 -24.933740 5.673700 -5.999669 -46.577491 -0.386421 -5.338579 -15.215137 -19.687220 3.361345 0.000000 0.000000 0.000000 22.447553 -6.775076 -5.936512 52.060666 2.625133 -3.976747 14.651961 23.043028 3.531018 0.000000 0.000000 0.000000 
-0.001539 0.941296 0.005993 0.255968 -0.364906 4.111937 0.216104 0.092004 1.082360 0.067943 0.064050 -2.066586 -1.765901 -3.687507 0.216403 0.000000 0.000000 0.000000 -1.083276 0.290784 -2.796582 -0.705364 0.179100 2.304164 1.249656 4.253651 -1.612273 0.000000 0.000000 0.000000 3.498902 0.082561 -2.289944 -1.618700 0.774337 -0.796762 -2.692560 0.278886 5.402739 3.687859 -1.369839 -13.065518 0.000000 0.000000 0.000000 -25.187989 5.569097 -6.047554 -46.323309 0.051362 -5.439814 -15.708906 -19.647137 3.430012 0.000000 0.000000 0.000000 22.573869 -6.855398 -5.955598 52.030361 2.760989 -3.917351 14.901795 23.115624 3.601561 0.000000 0.000000 0.000000 
-0.002391 0.941388 0.006553 0.221817 -0.447402 4.274041 0.217803 0.091697 1.080232 0.278024 0.057390 -2.404407 -1.901371 -3.914542 0.336735 0.000000 0.000000 0.000000 -0.872153 0.288292 -2.789493 -0.909196 0.195535 2.124269 1.094285 3.809001 -1.573127 0.000000 0.000000 0.000000 3.689039 0.101137 -2.578886 -1.634288 0.779182 -0.566886 -2.757898 0.501206 5.373561 3.762346 -1.412961 -12.944712 0.000000 0.000000 0.000000 -25.286063 5.295542 -5.963182 -46.180831 0.253239 -5.474631 -15.912992 -19.317452 3.395650 0.000000 0.000000 0.000000 22.691443 -6.768903 -5.872767 51.954995 2.981746 -3.827979 14.857989 23.257040 3.629964 0.000000 0.000000 0.000000 
